<svg xmlns="http://www.w3.org/2000/svg" viewBox="0 0 491.25 612.41"><defs><style>.cls-1,.cls-2,.cls-3{fill:#fff;}.cls-2{stroke:#fff;stroke-miterlimit:10;}.cls-3{font-size:120px;font-family:Calibri-Bold, Calibri;font-weight:700;}</style></defs><title>Asset 2</title><g id="Layer_2" data-name="Layer 2"><g id="Layer_1-2" data-name="Layer 1"><path class="cls-1" d="M74.21,164.59A98,98,0,0,1,81,140.26c2-4.78,4.29-10.26,9.32-16,1.09-1.25,8.55-8.24,8.75-8.34a27.22,27.22,0,0,0,2.85-1.44c22.66-5.71,46-5.21,69.11-4.46,48.77,1.58,97.53.51,146.29.51,11.8,0,23.76-1.21,35.52-.45,8.82.57,26.15,3,31.87,3.16a27.9,27.9,0,0,1,6.72.64,30,30,0,0,1,6,2.22c6.76,3.45,19.43,20.61,24.61,51.13v.05c8.11,47.89,21.72,112.84,21.72,112.84,4.23,20.19,5.13,28.26,9.19,44.75,1.92,7.83,2.89,15.84,4.51,23.73,2.25,11,4.81,21.9,7,32.87,2.4,11.82,4.39,23.71,6.89,35.51,1.23,5.79,2.8,11.53,3.5,17.39,1.22,10.37-7.25,18.15-9.29,20.28-11.61,12.16-30.76,11.58-36.38,11.51-48.37-.59-257.63-.21-368.06.1-17.11,0-34-11-38.51-22.81-2-5.18-1.35-10.41-.31-15.65,1.87-9.35,3.66-18.7,5.48-28,1.28-6.6,2.5-13.22,3.84-19.81.46-2.23,2.53-1.53,4.08-1.26a167.69,167.69,0,0,0,34,2.73c21.09-.52,42.14-1.62,63.07-4.34A495.62,495.62,0,0,0,187,367.29c5.27-1.29,6.09-2,3.74-5.94-5.55-9.22-8.44-19.18-11-29.14a69.81,69.81,0,0,1-2.49-13.6c-.67-12-1.5-24-.12-36,.7-6-.51-6.5-7.21-4.49C143.41,286,116.18,290.49,88,289.29c-11.2-.48-22.18-2.92-32.93-5.75A4.82,4.82,0,0,1,52,281.68a4.4,4.4,0,0,1-.16-3.35C52.73,275.17,61.74,229,74.21,164.59Zm188.08,201.9c16.9.85,34-1.48,51.07-3.9,11.37-1.61,22.82-3.35,33.28-8,11.46-5.15,15.87-13.34,12.36-24.1-.72-2.21-.28-3.35,2.16-4.4,10.07-4.32,13.58-14.7,8-23-1.4-2.08-5-3.17-4.94-5.47.11-2.52,4-3.23,5.78-5.29,6-7.1,4.21-17.24-4.83-23.74-2.6-1.87-3.22-3.21-2.08-6.28,3.19-8.58,2.1-17.47-8.59-23.25-9.79-5.29-20.29-5.88-31.21-4.88a285.05,285.05,0,0,0-42.65,7.14c-2.74.67-4.6.41-3.9-2.8a81.28,81.28,0,0,0,1.36-9.44c1.34-14.3,0-28.29-6.95-41.56-6.12-11.65-17.9-18.43-30.14-17.46-8.23.65-8.41.67-7.2,7.5a97.11,97.11,0,0,1-1.51,40.18c-4.43,18.46-14.68,34.09-30.1,47.29a15,15,0,0,0-5.47,9.68c-2,13.59-2.52,27.13-.4,40.77s5.85,26.66,12.59,39.11a13.17,13.17,0,0,0,8.18,6.51C231.56,365.69,246.52,367,262.29,366.49Z"/><path class="cls-2" d="M139,105.84c.06-.78.09-1.63.09-2.54s-.05-1.55-.11-2.25c.24-8.7.38-15.62.46-19.87.36-19.9.15-24.22,2.63-31.16a60.23,60.23,0,0,1,8.15-15,76.67,76.67,0,0,1,12.47-13.41c4.48-3.84,18.71-15.7,40.3-18.88,1.48-.22,3-.36,5.82-.62C236.11-.4,256.39.48,282.1,1.7c4.08.19,6.41.33,9.55.71,6.7.82,17.44,2.21,29.4,8.23A80.35,80.35,0,0,1,342.3,26.28c3.64,3.69,6.83,7.71,10.23,11.58a.16.16,0,0,0,0,.22.14.14,0,0,0,.1,0c.83,1.54,1.65,3.15,2.47,4.85q1.39,2.91,2.53,5.64c.13.29.19.52.27.74a70.32,70.32,0,0,1,2.22,7.24,40.84,40.84,0,0,1,.93,6.21c1,11.86.68,32.15.78,38.31,0,.48.07,2.27,0,4.7,0,1.58-.05,3.16-.08,4.75-.69,2.07,1.12,1.75,2.4,1.76,2.77,0,7.31-.27,16.46,0,1.18,0,3,.11,5.28.37a8.33,8.33,0,0,1,1.95.34c.35.11.66.22.94.34.53.13,1.07.28,1.62.43.8.22,1.57.45,2.32.69a1.54,1.54,0,0,0,1.79.8l1.36.41c.27.63.54,1.27.82,1.9-2.55.61-4.41-1-6.53-1.59-11.49-3.34-23.51-2.09-35.25-2.85s-23.73.45-35.53.45c-48.75,0-97.52,1.07-146.28-.51-23.13-.75-46.45-1.24-69.11,4.46l.71-1.8,1.36-.44a1.63,1.63,0,0,0,1.88-.82l1.74-.31a5.92,5.92,0,0,0,5.17-1.66c6.44-.39,12.87-1,19.32-1.11C139.17,111.34,139.8,109.22,139,105.84Zm182.9-44.58c-4.12-8.34-12.08-20.88-26.05-25.7-3.18-1.1-5.53-1.41-13.27-2-16.68-1.21-35.66,0-64.42,0a47.58,47.58,0,0,0-18.62,4.21c-1,.45-10.17,4.49-15,11.06a44.57,44.57,0,0,0-3.52,5.87,36.51,36.51,0,0,0-2,5.09c-.33,1.07-.55,2-.69,2.57-.06.38-.18,1-.34,1.88-.29,1.54-.52,2.66-.54,2.79-1.19,5.84,0,35-.1,41.3,0,3.25,1.43,4,4.91,4q67.9-.1,135.8,0a6.09,6.09,0,0,0,4.29-1.18,5.71,5.71,0,0,0,1.62-3.71,160.78,160.78,0,0,0-.7-38.17C323,67.5,322.54,64.71,321.92,61.26Z"/><text class="cls-3" transform="translate(0 570.52)">CY2 SHOP</text></g></g></svg>